<svg width="1024" height="1024" viewBox="0 0 1024 1024" fill="none" xmlns="http://www.w3.org/2000/svg">
<g clip-path="url(#clip0_704_189)">
<g clip-path="url(#clip1_704_189)">
<rect x="0.000213623" y="0.00397491" width="1024" height="1024" rx="512" fill="black"/>
<rect x="10.0002" y="10.004" width="1004" height="1004" rx="502" fill="white"/>
<rect x="26.0002" y="26.004" width="972" height="972" rx="486" fill="black"/>
<rect x="134" y="134.004" width="756" height="756" rx="378" fill="white"/>
<rect x="149" y="149.004" width="726" height="726" rx="363" fill="black"/>
<path d="M743 296.004C718 296.004 578 296.004 578 296.004V353.504L702.5 354.504H704.001C710.076 354.504 715 359.429 715 365.504V384.004C715 390.631 709.628 396.004 703 396.004H701H604.5V455.504H694H700.501C708.509 455.504 715 461.996 715 470.004V487.004C715 494.46 708.956 500.504 701.5 500.504H698H579.5V558.504H732.5C744.5 558.504 763.5 551.004 771.5 546.504C779.357 542.085 792.5 530.504 792.5 519.504V455.504C792.5 448.504 785.389 438.004 784.5 437.004C783.611 436.004 773 425.004 766.5 425.004C773 425.004 778.702 421.504 784 416.004C787.5 412.371 792.5 404.491 792.5 396.004V338.004C792.5 333.004 785.722 320.725 776 311.004C765.638 300.643 752.5 296.004 743 296.004Z" fill="white"/>
<path d="M672.5 762.004L764 608.004H582L672.5 762.004Z" fill="#FFFF36"/>
<path d="M552 396.504V287.004H366C359.747 287.511 349.184 288.312 338.5 291.004C328.111 293.621 317.633 298.08 309 302.004C298 307.004 271.196 323.208 255 338.504C237 355.504 216.108 386.037 207.5 402.504C198.892 418.971 183 461.504 183 512.754C183 566.38 198.628 601.542 207.439 621.366L207.5 621.504C215.5 639.504 241.051 673.522 256 686.504C275 703.004 294.718 715.056 309 722.004C317.834 726.301 328.795 730.781 339 733.504C350.167 736.483 360.427 737.546 366 738.504H551.5V627.004H366C362 627.004 355.5 624.004 350 619.504C348.692 618.434 345.028 615.101 343 613.004C340.023 609.925 336.005 605.494 333 601.004C326.065 590.643 322.5 578.004 320 570.504C317.938 564.316 316.563 559.127 315 550.004C313.221 539.62 311.5 524.867 311.5 512.754C311.5 503.835 312.871 487.456 315 474.004C316.273 465.962 317.816 460.551 319.5 454.004C321.976 444.377 327.28 431.118 333.5 420.388C335.45 417.024 339.443 411.917 343 408.504C347.169 404.504 351.094 402.229 353 401.004C360 396.504 366 396.504 366 396.504H552Z" fill="white"/>
</g>
</g>
<defs>
<clipPath id="clip0_704_189">
<rect width="1024" height="1024" fill="white"/>
</clipPath>
<clipPath id="clip1_704_189">
<rect width="1024" height="1024" fill="white"/>
</clipPath>
</defs>
</svg>
